<mxfile host="app.diagrams.net" modified="2023-12-20T16:59:13.186Z" agent="Mozilla/5.0 (Windows NT 10.0; Win64; x64) AppleWebKit/537.36 (KHTML, like Gecko) Chrome/120.0.0.0 Safari/537.36 Edg/120.0.0.0" etag="RuX61naDU4eGwRYNuKiG" version="22.1.11" type="github">
  <diagram id="C5RBs43oDa-KdzZeNtuy" name="Page-1">
    <mxGraphModel dx="1353" dy="1035" grid="1" gridSize="10" guides="1" tooltips="1" connect="1" arrows="1" fold="1" page="1" pageScale="1" pageWidth="827" pageHeight="1169" math="0" shadow="0">
      <root>
        <mxCell id="WIyWlLk6GJQsqaUBKTNV-0" />
        <mxCell id="WIyWlLk6GJQsqaUBKTNV-1" parent="WIyWlLk6GJQsqaUBKTNV-0" />
        <mxCell id="QNDEEkscUu9Zg__NJOHl-25" style="edgeStyle=orthogonalEdgeStyle;rounded=0;orthogonalLoop=1;jettySize=auto;html=1;exitX=0.5;exitY=1;exitDx=0;exitDy=0;" parent="WIyWlLk6GJQsqaUBKTNV-1" source="gmqt5DbwduWL5jJ9nKZi-27" target="QNDEEkscUu9Zg__NJOHl-24" edge="1">
          <mxGeometry relative="1" as="geometry">
            <mxPoint x="449" y="210" as="sourcePoint" />
          </mxGeometry>
        </mxCell>
        <mxCell id="QNDEEkscUu9Zg__NJOHl-43" style="edgeStyle=orthogonalEdgeStyle;rounded=0;orthogonalLoop=1;jettySize=auto;html=1;exitX=0.5;exitY=1;exitDx=0;exitDy=0;entryX=0.5;entryY=0;entryDx=0;entryDy=0;" parent="WIyWlLk6GJQsqaUBKTNV-1" source="QNDEEkscUu9Zg__NJOHl-24" target="QNDEEkscUu9Zg__NJOHl-42" edge="1">
          <mxGeometry relative="1" as="geometry" />
        </mxCell>
        <mxCell id="QNDEEkscUu9Zg__NJOHl-46" style="edgeStyle=orthogonalEdgeStyle;rounded=0;orthogonalLoop=1;jettySize=auto;html=1;exitX=0.5;exitY=1;exitDx=0;exitDy=0;entryX=0.5;entryY=0;entryDx=0;entryDy=0;" parent="WIyWlLk6GJQsqaUBKTNV-1" source="QNDEEkscUu9Zg__NJOHl-24" target="QNDEEkscUu9Zg__NJOHl-45" edge="1">
          <mxGeometry relative="1" as="geometry" />
        </mxCell>
        <mxCell id="QNDEEkscUu9Zg__NJOHl-49" style="edgeStyle=orthogonalEdgeStyle;rounded=0;orthogonalLoop=1;jettySize=auto;html=1;exitX=0.5;exitY=1;exitDx=0;exitDy=0;entryX=0.5;entryY=0;entryDx=0;entryDy=0;" parent="WIyWlLk6GJQsqaUBKTNV-1" source="QNDEEkscUu9Zg__NJOHl-24" target="QNDEEkscUu9Zg__NJOHl-48" edge="1">
          <mxGeometry relative="1" as="geometry" />
        </mxCell>
        <mxCell id="QNDEEkscUu9Zg__NJOHl-24" value="CI/CD" style="verticalLabelPosition=middle;verticalAlign=middle;html=1;shape=process;whiteSpace=wrap;rounded=1;size=0.14;arcSize=6;labelPosition=center;align=center;" parent="WIyWlLk6GJQsqaUBKTNV-1" vertex="1">
          <mxGeometry x="399" y="280" width="100" height="60" as="geometry" />
        </mxCell>
        <mxCell id="QNDEEkscUu9Zg__NJOHl-52" style="edgeStyle=orthogonalEdgeStyle;rounded=0;orthogonalLoop=1;jettySize=auto;html=1;exitX=1;exitY=0.5;exitDx=0;exitDy=0;exitPerimeter=0;entryX=0;entryY=0.5;entryDx=0;entryDy=0;" parent="WIyWlLk6GJQsqaUBKTNV-1" source="QNDEEkscUu9Zg__NJOHl-32" target="QNDEEkscUu9Zg__NJOHl-51" edge="1">
          <mxGeometry relative="1" as="geometry" />
        </mxCell>
        <mxCell id="QNDEEkscUu9Zg__NJOHl-32" value="Offline JSON" style="strokeWidth=2;html=1;shape=mxgraph.flowchart.multi-document;whiteSpace=wrap;" parent="WIyWlLk6GJQsqaUBKTNV-1" vertex="1">
          <mxGeometry x="399" y="520" width="100" height="60" as="geometry" />
        </mxCell>
        <mxCell id="QNDEEkscUu9Zg__NJOHl-60" style="edgeStyle=orthogonalEdgeStyle;rounded=0;orthogonalLoop=1;jettySize=auto;html=1;exitX=0.5;exitY=1;exitDx=0;exitDy=0;entryX=0.5;entryY=0;entryDx=0;entryDy=0;" parent="WIyWlLk6GJQsqaUBKTNV-1" source="QNDEEkscUu9Zg__NJOHl-39" target="QNDEEkscUu9Zg__NJOHl-57" edge="1">
          <mxGeometry relative="1" as="geometry">
            <mxPoint x="265" y="600" as="sourcePoint" />
          </mxGeometry>
        </mxCell>
        <mxCell id="QNDEEkscUu9Zg__NJOHl-39" value="Bowser Stack" style="rounded=0;whiteSpace=wrap;html=1;verticalAlign=top;" parent="WIyWlLk6GJQsqaUBKTNV-1" vertex="1">
          <mxGeometry x="220" y="500" width="130" height="80" as="geometry" />
        </mxCell>
        <mxCell id="QNDEEkscUu9Zg__NJOHl-44" style="edgeStyle=orthogonalEdgeStyle;rounded=0;orthogonalLoop=1;jettySize=auto;html=1;exitX=0.5;exitY=1;exitDx=0;exitDy=0;entryX=0.5;entryY=0;entryDx=0;entryDy=0;" parent="WIyWlLk6GJQsqaUBKTNV-1" source="QNDEEkscUu9Zg__NJOHl-42" target="QNDEEkscUu9Zg__NJOHl-39" edge="1">
          <mxGeometry relative="1" as="geometry" />
        </mxCell>
        <mxCell id="QNDEEkscUu9Zg__NJOHl-42" value="Recreate Bowser Stacks" style="verticalLabelPosition=middle;verticalAlign=middle;html=1;shape=process;whiteSpace=wrap;rounded=1;size=0.14;arcSize=6;labelPosition=center;align=center;" parent="WIyWlLk6GJQsqaUBKTNV-1" vertex="1">
          <mxGeometry x="230" y="410" width="100" height="60" as="geometry" />
        </mxCell>
        <mxCell id="QNDEEkscUu9Zg__NJOHl-53" style="edgeStyle=orthogonalEdgeStyle;rounded=0;orthogonalLoop=1;jettySize=auto;html=1;exitX=0.5;exitY=1;exitDx=0;exitDy=0;" parent="WIyWlLk6GJQsqaUBKTNV-1" source="QNDEEkscUu9Zg__NJOHl-45" target="QNDEEkscUu9Zg__NJOHl-51" edge="1">
          <mxGeometry relative="1" as="geometry" />
        </mxCell>
        <mxCell id="QNDEEkscUu9Zg__NJOHl-45" value="Create Faker Build" style="verticalLabelPosition=middle;verticalAlign=middle;html=1;shape=process;whiteSpace=wrap;rounded=1;size=0.14;arcSize=6;labelPosition=center;align=center;" parent="WIyWlLk6GJQsqaUBKTNV-1" vertex="1">
          <mxGeometry x="550" y="410" width="100" height="60" as="geometry" />
        </mxCell>
        <mxCell id="QNDEEkscUu9Zg__NJOHl-48" value="Create Offline JSON" style="verticalLabelPosition=middle;verticalAlign=middle;html=1;shape=process;whiteSpace=wrap;rounded=1;size=0.14;arcSize=6;labelPosition=center;align=center;" parent="WIyWlLk6GJQsqaUBKTNV-1" vertex="1">
          <mxGeometry x="399" y="410" width="100" height="60" as="geometry" />
        </mxCell>
        <mxCell id="QNDEEkscUu9Zg__NJOHl-50" style="edgeStyle=orthogonalEdgeStyle;rounded=0;orthogonalLoop=1;jettySize=auto;html=1;exitX=0.5;exitY=1;exitDx=0;exitDy=0;entryX=0.5;entryY=0;entryDx=0;entryDy=0;entryPerimeter=0;" parent="WIyWlLk6GJQsqaUBKTNV-1" source="QNDEEkscUu9Zg__NJOHl-48" target="QNDEEkscUu9Zg__NJOHl-32" edge="1">
          <mxGeometry relative="1" as="geometry" />
        </mxCell>
        <mxCell id="gmqt5DbwduWL5jJ9nKZi-29" style="edgeStyle=orthogonalEdgeStyle;rounded=0;orthogonalLoop=1;jettySize=auto;html=1;exitX=0.5;exitY=1;exitDx=0;exitDy=0;entryX=0.5;entryY=0;entryDx=0;entryDy=0;" parent="WIyWlLk6GJQsqaUBKTNV-1" source="QNDEEkscUu9Zg__NJOHl-51" target="gmqt5DbwduWL5jJ9nKZi-28" edge="1">
          <mxGeometry relative="1" as="geometry" />
        </mxCell>
        <mxCell id="QNDEEkscUu9Zg__NJOHl-51" value="Faker Build" style="rounded=0;whiteSpace=wrap;html=1;" parent="WIyWlLk6GJQsqaUBKTNV-1" vertex="1">
          <mxGeometry x="540" y="520" width="120" height="60" as="geometry" />
        </mxCell>
        <mxCell id="QNDEEkscUu9Zg__NJOHl-57" value="Trainer Build" style="rounded=0;whiteSpace=wrap;html=1;" parent="WIyWlLk6GJQsqaUBKTNV-1" vertex="1">
          <mxGeometry x="225" y="630" width="120" height="60" as="geometry" />
        </mxCell>
        <mxCell id="QNDEEkscUu9Zg__NJOHl-58" value="&lt;br&gt;&lt;br&gt;UA Developer (QA)" style="shape=actor;whiteSpace=wrap;html=1;labelPosition=center;verticalLabelPosition=middle;align=center;verticalAlign=middle;" parent="WIyWlLk6GJQsqaUBKTNV-1" vertex="1">
          <mxGeometry x="80" y="720" width="70" height="80" as="geometry" />
        </mxCell>
        <mxCell id="QNDEEkscUu9Zg__NJOHl-61" value="&lt;br&gt;&lt;br&gt;Product Owner" style="shape=actor;whiteSpace=wrap;html=1;labelPosition=center;verticalLabelPosition=middle;align=center;verticalAlign=middle;" parent="WIyWlLk6GJQsqaUBKTNV-1" vertex="1">
          <mxGeometry x="351" y="720" width="70" height="80" as="geometry" />
        </mxCell>
        <mxCell id="QNDEEkscUu9Zg__NJOHl-63" value="&lt;br&gt;&lt;br&gt;Quality &amp;amp; PO" style="shape=actor;whiteSpace=wrap;html=1;labelPosition=center;verticalLabelPosition=middle;align=center;verticalAlign=middle;" parent="WIyWlLk6GJQsqaUBKTNV-1" vertex="1">
          <mxGeometry x="351" y="830" width="70" height="80" as="geometry" />
        </mxCell>
        <mxCell id="QNDEEkscUu9Zg__NJOHl-64" value="Air Gap Build" style="rounded=0;whiteSpace=wrap;html=1;" parent="WIyWlLk6GJQsqaUBKTNV-1" vertex="1">
          <mxGeometry x="540" y="750" width="120" height="60" as="geometry" />
        </mxCell>
        <mxCell id="gmqt5DbwduWL5jJ9nKZi-22" value="Core" style="strokeWidth=2;html=1;shape=mxgraph.flowchart.database;whiteSpace=wrap;" parent="WIyWlLk6GJQsqaUBKTNV-1" vertex="1">
          <mxGeometry x="230" y="535" width="40" height="30" as="geometry" />
        </mxCell>
        <mxCell id="gmqt5DbwduWL5jJ9nKZi-26" value="API" style="verticalLabelPosition=middle;verticalAlign=middle;html=1;shape=process;whiteSpace=wrap;rounded=1;size=0.14;arcSize=6;labelPosition=center;align=center;" parent="WIyWlLk6GJQsqaUBKTNV-1" vertex="1">
          <mxGeometry x="280" y="535" width="60" height="30" as="geometry" />
        </mxCell>
        <mxCell id="gmqt5DbwduWL5jJ9nKZi-27" value="GitLab" style="rounded=0;whiteSpace=wrap;html=1;" parent="WIyWlLk6GJQsqaUBKTNV-1" vertex="1">
          <mxGeometry x="389" y="150" width="120" height="60" as="geometry" />
        </mxCell>
        <mxCell id="gmqt5DbwduWL5jJ9nKZi-30" style="edgeStyle=orthogonalEdgeStyle;rounded=0;orthogonalLoop=1;jettySize=auto;html=1;exitX=0.5;exitY=1;exitDx=0;exitDy=0;entryX=0.5;entryY=0;entryDx=0;entryDy=0;" parent="WIyWlLk6GJQsqaUBKTNV-1" source="gmqt5DbwduWL5jJ9nKZi-28" target="QNDEEkscUu9Zg__NJOHl-64" edge="1">
          <mxGeometry relative="1" as="geometry" />
        </mxCell>
        <mxCell id="gmqt5DbwduWL5jJ9nKZi-28" value="Jenkins Create AirGap" style="verticalLabelPosition=middle;verticalAlign=middle;html=1;shape=process;whiteSpace=wrap;rounded=1;size=0.14;arcSize=6;labelPosition=center;align=center;" parent="WIyWlLk6GJQsqaUBKTNV-1" vertex="1">
          <mxGeometry x="550" y="630" width="100" height="60" as="geometry" />
        </mxCell>
        <mxCell id="gmqt5DbwduWL5jJ9nKZi-31" value="" style="endArrow=none;html=1;rounded=0;entryX=0.75;entryY=1;entryDx=0;entryDy=0;exitX=0.1;exitY=0.5;exitDx=0;exitDy=0;exitPerimeter=0;endFill=0;" parent="WIyWlLk6GJQsqaUBKTNV-1" source="QNDEEkscUu9Zg__NJOHl-61" target="QNDEEkscUu9Zg__NJOHl-57" edge="1">
          <mxGeometry width="50" height="50" relative="1" as="geometry">
            <mxPoint x="420" y="700" as="sourcePoint" />
            <mxPoint x="470" y="650" as="targetPoint" />
          </mxGeometry>
        </mxCell>
        <mxCell id="gmqt5DbwduWL5jJ9nKZi-32" value="" style="endArrow=none;html=1;rounded=0;entryX=0;entryY=0.25;entryDx=0;entryDy=0;exitX=0.986;exitY=0.625;exitDx=0;exitDy=0;exitPerimeter=0;" parent="WIyWlLk6GJQsqaUBKTNV-1" source="QNDEEkscUu9Zg__NJOHl-61" target="QNDEEkscUu9Zg__NJOHl-64" edge="1">
          <mxGeometry width="50" height="50" relative="1" as="geometry">
            <mxPoint x="420" y="700" as="sourcePoint" />
            <mxPoint x="470" y="650" as="targetPoint" />
          </mxGeometry>
        </mxCell>
        <mxCell id="gmqt5DbwduWL5jJ9nKZi-33" value="" style="endArrow=none;html=1;rounded=0;entryX=0;entryY=0.75;entryDx=0;entryDy=0;exitX=0.9;exitY=0.5;exitDx=0;exitDy=0;exitPerimeter=0;" parent="WIyWlLk6GJQsqaUBKTNV-1" source="QNDEEkscUu9Zg__NJOHl-63" target="QNDEEkscUu9Zg__NJOHl-64" edge="1">
          <mxGeometry width="50" height="50" relative="1" as="geometry">
            <mxPoint x="420" y="700" as="sourcePoint" />
            <mxPoint x="470" y="650" as="targetPoint" />
          </mxGeometry>
        </mxCell>
        <mxCell id="gmqt5DbwduWL5jJ9nKZi-34" value="" style="endArrow=none;html=1;rounded=0;exitX=0.9;exitY=0.5;exitDx=0;exitDy=0;exitPerimeter=0;entryX=0.25;entryY=1;entryDx=0;entryDy=0;" parent="WIyWlLk6GJQsqaUBKTNV-1" source="QNDEEkscUu9Zg__NJOHl-58" target="QNDEEkscUu9Zg__NJOHl-57" edge="1">
          <mxGeometry width="50" height="50" relative="1" as="geometry">
            <mxPoint x="420" y="700" as="sourcePoint" />
            <mxPoint x="470" y="650" as="targetPoint" />
          </mxGeometry>
        </mxCell>
        <mxCell id="gmqt5DbwduWL5jJ9nKZi-36" value="&lt;br&gt;&lt;br&gt;Jenkins User" style="shape=actor;whiteSpace=wrap;html=1;labelPosition=center;verticalLabelPosition=middle;align=center;verticalAlign=middle;" parent="WIyWlLk6GJQsqaUBKTNV-1" vertex="1">
          <mxGeometry x="421" y="620" width="70" height="80" as="geometry" />
        </mxCell>
        <mxCell id="gmqt5DbwduWL5jJ9nKZi-38" value="" style="endArrow=none;html=1;rounded=0;exitX=0.9;exitY=0.5;exitDx=0;exitDy=0;exitPerimeter=0;entryX=0;entryY=0.75;entryDx=0;entryDy=0;" parent="WIyWlLk6GJQsqaUBKTNV-1" source="gmqt5DbwduWL5jJ9nKZi-36" target="gmqt5DbwduWL5jJ9nKZi-28" edge="1">
          <mxGeometry width="50" height="50" relative="1" as="geometry">
            <mxPoint x="430" y="480" as="sourcePoint" />
            <mxPoint x="480" y="430" as="targetPoint" />
          </mxGeometry>
        </mxCell>
        <mxCell id="nTyst-7H_TQxdHeL6iLz-0" value="&lt;br&gt;&lt;br&gt;SME" style="shape=actor;whiteSpace=wrap;html=1;labelPosition=center;verticalLabelPosition=middle;align=center;verticalAlign=middle;" parent="WIyWlLk6GJQsqaUBKTNV-1" vertex="1">
          <mxGeometry x="215" y="720" width="70" height="80" as="geometry" />
        </mxCell>
        <mxCell id="nTyst-7H_TQxdHeL6iLz-1" value="" style="endArrow=none;html=1;rounded=0;exitX=0.9;exitY=0.5;exitDx=0;exitDy=0;exitPerimeter=0;entryX=0.5;entryY=1;entryDx=0;entryDy=0;" parent="WIyWlLk6GJQsqaUBKTNV-1" source="nTyst-7H_TQxdHeL6iLz-0" target="QNDEEkscUu9Zg__NJOHl-57" edge="1">
          <mxGeometry width="50" height="50" relative="1" as="geometry">
            <mxPoint x="300" y="580" as="sourcePoint" />
            <mxPoint x="350" y="530" as="targetPoint" />
          </mxGeometry>
        </mxCell>
        <mxCell id="CZ9E-Sao0wJT48iAaBKp-0" value="IETM&lt;br&gt;To Core&lt;br&gt;SQL" style="verticalLabelPosition=middle;verticalAlign=middle;html=1;shape=offPageConnector;rounded=0;size=0.5;labelPosition=center;align=center;" vertex="1" parent="WIyWlLk6GJQsqaUBKTNV-1">
          <mxGeometry x="324" y="20" width="89" height="80" as="geometry" />
        </mxCell>
        <mxCell id="CZ9E-Sao0wJT48iAaBKp-1" value="Story Specific&lt;br&gt;Training&lt;br&gt;Data" style="verticalLabelPosition=middle;verticalAlign=middle;html=1;shape=offPageConnector;rounded=0;size=0.5;labelPosition=center;align=center;" vertex="1" parent="WIyWlLk6GJQsqaUBKTNV-1">
          <mxGeometry x="490" y="20" width="89" height="80" as="geometry" />
        </mxCell>
        <mxCell id="CZ9E-Sao0wJT48iAaBKp-2" style="edgeStyle=orthogonalEdgeStyle;rounded=0;orthogonalLoop=1;jettySize=auto;html=1;exitX=0.5;exitY=1;exitDx=0;exitDy=0;entryX=0.25;entryY=0;entryDx=0;entryDy=0;" edge="1" parent="WIyWlLk6GJQsqaUBKTNV-1" source="CZ9E-Sao0wJT48iAaBKp-0" target="gmqt5DbwduWL5jJ9nKZi-27">
          <mxGeometry relative="1" as="geometry">
            <mxPoint x="405" y="150" as="targetPoint" />
          </mxGeometry>
        </mxCell>
        <mxCell id="CZ9E-Sao0wJT48iAaBKp-3" style="edgeStyle=orthogonalEdgeStyle;rounded=0;orthogonalLoop=1;jettySize=auto;html=1;exitX=0.5;exitY=1;exitDx=0;exitDy=0;entryX=0.75;entryY=0;entryDx=0;entryDy=0;" edge="1" parent="WIyWlLk6GJQsqaUBKTNV-1" source="CZ9E-Sao0wJT48iAaBKp-1" target="gmqt5DbwduWL5jJ9nKZi-27">
          <mxGeometry relative="1" as="geometry">
            <mxPoint x="502" y="148" as="targetPoint" />
          </mxGeometry>
        </mxCell>
      </root>
    </mxGraphModel>
  </diagram>
</mxfile>
